<svg width="268" height="268" viewBox="0 0 268 268" fill="none" xmlns="http://www.w3.org/2000/svg">
<circle cx="134" cy="134" r="133.5" fill="url(#paint0_linear_11_2560)" stroke="url(#paint1_linear_11_2560)"/>
<circle cx="134.289" cy="134" r="114.993" fill="#1B5A73"/>
<path fill-rule="evenodd" clip-rule="evenodd" d="M47.9512 99.7109C49.8315 95.3693 52.6803 91.4486 56.2308 88.315C58.3108 86.4802 61.0132 84.8316 63.7118 85.4824C66.1007 86.0585 67.7644 88.2806 70.0773 89.1117C73.1842 90.2289 76.6385 88.5596 79.0756 86.3355C81.512 84.1108 83.4073 81.2996 86.0876 79.374C87.2895 78.5105 88.7061 77.8254 90.1858 77.8883C91.5724 77.9473 92.8427 78.65 94.0154 79.3915C97.817 81.7959 101.234 84.8037 104.099 88.267L104.272 107.868L49.0302 114.351L47.9512 99.7109Z" fill="#007B67"/>
<path fill-rule="evenodd" clip-rule="evenodd" d="M219.618 100.942C217.93 96.5224 215.258 92.4805 211.849 89.195C209.851 87.2707 207.224 85.5047 204.499 86.0367C202.087 86.5077 200.327 88.6545 197.98 89.3838C194.827 90.3635 191.449 88.5443 189.114 86.2151C186.777 83.886 185.007 80.9943 182.415 78.9532C181.252 78.0378 179.867 77.291 178.385 77.2891C176.997 77.2871 175.698 77.934 174.493 78.623C170.59 80.8587 167.044 83.7134 164.028 87.0482L162.992 106.622L217.895 115.521L219.618 100.942Z" fill="#007B67"/>
<path fill-rule="evenodd" clip-rule="evenodd" d="M19.7842 133.8C21.7425 122.08 28.2089 107.934 35.1656 97.6826C36.867 95.1757 38.7246 92.6687 41.2956 91.0598C41.9018 90.6802 42.5977 90.5414 43.2976 90.3934C44.9678 90.0399 46.8761 91.4399 47.5636 92.3333C48.64 93.7315 49.7164 95.1302 50.7935 96.529C52.5912 98.864 54.7831 101.412 57.7326 101.518C62.919 101.703 65.6585 94.4386 70.811 93.8249C74.6353 93.3694 77.6857 96.7165 80.4096 99.4337C84.033 103.047 91.0574 109.259 96.1481 108.679L19.7842 133.8Z" fill="#007B67"/>
<path fill-rule="evenodd" clip-rule="evenodd" d="M248.877 133.8C246.919 122.08 240.453 107.934 233.495 97.6824C231.794 95.1755 229.936 92.6686 227.365 91.0596C226.76 90.68 226.063 90.5412 225.363 90.3933C223.693 90.0403 221.785 91.4398 221.097 92.3332C220.021 93.7319 218.944 95.1301 217.868 96.5289C216.07 98.8639 213.878 101.412 210.928 101.517C205.742 101.703 203.002 94.4385 197.85 93.8247C194.025 93.3693 190.975 96.7164 188.251 99.4335C184.628 103.047 177.603 109.259 172.513 108.679" fill="#007B67"/>
<path fill-rule="evenodd" clip-rule="evenodd" d="M78.2939 111.141C84.7889 103.843 91.7001 93.8332 97.5472 84.7054C103.86 74.8509 110.173 64.9965 116.486 55.142C118.385 52.1758 120.309 49.1803 122.843 46.7312C125.377 44.282 128.617 42.3934 132.137 42.141C136.035 41.8613 139.859 43.6228 142.845 46.1382C145.831 48.6529 148.112 51.8825 150.357 55.0733C158.653 66.8631 165.315 78.259 173.349 91.6416C178.211 99.7391 182.277 105.409 187.966 111.079L78.2939 111.141Z" fill="#84B89D"/>
<path fill-rule="evenodd" clip-rule="evenodd" d="M109.952 65.4427C109.356 66.2771 111.328 63.909 112.191 63.3523C112.768 62.9806 113.421 62.6698 114.107 62.6886C116.556 62.7548 117.203 66.4873 119.505 67.3222C121.177 67.9295 122.99 66.715 124.018 65.2656C124.587 64.465 125.114 63.5048 126.055 63.218C126.992 62.9326 127.985 63.4392 128.755 64.0433C129.525 64.6466 130.238 65.3843 131.173 65.6743C132.788 66.1758 134.477 65.1871 135.75 64.0757C136.34 63.5586 136.977 62.9721 137.762 62.9553C139.385 62.9196 139.97 65.0943 141.24 66.1019C141.402 66.2297 141.587 66.3432 141.793 66.3556C141.984 66.3666 142.169 66.2907 142.334 66.1973C144.797 64.8134 146.525 61.1172 149.757 60.8571C151.365 60.728 152.554 61.6389 153.819 62.4758C155.351 63.4886 155.635 63.7604 157.071 64.9049C155.796 62.6075 153.818 60.0448 152.192 57.6144C149.937 54.2446 148.94 52.7537 145.369 48.1694C142.63 44.6536 138.096 42.3582 133.503 42.1259C122.124 41.4239 117.27 55.1938 109.952 65.4427Z" fill="#FFFFFE"/>
<path fill-rule="evenodd" clip-rule="evenodd" d="M98.736 82.8522C98.7327 82.8496 98.7295 82.8463 98.7256 82.8438C103.025 76.1405 107.323 69.4385 111.622 62.7358C107.327 69.4417 103.032 76.1463 98.736 82.8522Z" fill="#9CD2C4"/>
<path fill-rule="evenodd" clip-rule="evenodd" d="M84.6786 103.328C84.6272 103.286 84.5758 103.243 84.5244 103.201C89.9741 96.1614 93.1403 91.5498 97.5429 84.6857C97.9364 84.0713 98.3305 83.4575 98.724 82.8438C98.7279 82.8463 98.7312 82.8496 98.7344 82.8522C98.339 83.4698 97.9435 84.0875 97.5474 84.7051C93.5917 90.8803 89.1501 97.4584 84.6786 103.328Z" fill="#577737"/>
<path fill-rule="evenodd" clip-rule="evenodd" d="M78.459 110.88C80.7926 107.967 82.7764 105.459 84.524 103.201C84.5754 103.243 84.6268 103.286 84.6781 103.328C82.6216 106.028 80.5585 108.578 78.5344 110.87C78.5091 110.873 78.4844 110.876 78.459 110.88Z" fill="#6A923F"/>
<path fill-rule="evenodd" clip-rule="evenodd" d="M78.5352 110.869C80.5592 108.578 82.6223 106.027 84.6789 103.328C89.1504 97.4582 93.592 90.8801 97.5478 84.7049C97.9438 84.0873 98.3393 83.4696 98.7347 82.852C103.031 76.1461 107.326 69.4415 111.621 62.7356C113.247 60.2008 114.873 57.6667 116.498 55.1318C116.548 55.054 116.599 54.9755 116.649 54.897C114.47 58.3699 112.342 62.094 109.952 65.4424C109.864 65.565 109.832 65.6182 109.844 65.6182C109.913 65.6182 111.455 63.8269 112.191 63.352C112.75 62.9906 113.382 62.6876 114.047 62.6876C114.067 62.6876 114.087 62.6876 114.106 62.6883C115.01 62.7129 115.669 63.2372 116.256 63.9307C114.365 67.2428 112.271 71.059 109.958 75.4532C96.8395 100.38 94.2678 109.086 94.247 109.158C94.2437 109.159 94.2405 109.159 94.2372 109.159C93.9809 109.171 88.6912 109.41 82.3751 110.387C81.0815 110.542 79.8002 110.703 78.5352 110.869Z" fill="#66A182"/>
<path fill-rule="evenodd" clip-rule="evenodd" d="M109.844 65.6185C109.832 65.6185 109.864 65.5653 109.952 65.4427C112.343 62.0943 114.47 58.3702 116.649 54.8973C118.502 52.0095 120.392 49.1088 122.861 46.7251C125.397 44.2779 128.638 42.3906 132.157 42.1401C132.157 42.1401 128.318 42.811 116.256 63.931C115.67 63.2374 115.011 62.7132 114.107 62.6886C114.087 62.6879 114.067 62.6879 114.048 62.6879C113.383 62.6879 112.751 62.9909 112.191 63.3523C111.456 63.8272 109.913 65.6185 109.844 65.6185Z" fill="#DCECE0"/>
<path fill-rule="evenodd" clip-rule="evenodd" d="M249.282 134.61C249.282 197.939 197.816 249.277 134.33 249.277C70.8434 249.277 19.377 197.939 19.377 134.61H249.282Z" fill="#48ABA7"/>
<path fill-rule="evenodd" clip-rule="evenodd" d="M95.8579 235.451H79.562C43.7157 216.04 19.3815 178.168 19.377 134.623C19.377 134.623 19.377 134.624 19.377 134.625C19.3932 140.874 28.3532 146.631 43.3938 151.218C43.6435 153.156 43.9232 155.043 44.2354 156.906C43.8568 158.743 44.342 160.82 45.3359 162.745C53.5862 202.024 75.7266 223.642 95.8579 235.451Z" fill="#48ABA7"/>
<path fill-rule="evenodd" clip-rule="evenodd" d="M150.578 248.061C149.973 241.47 157.113 237.833 162.209 233.595C168.079 228.714 172.546 222.402 176.943 216.168C175.898 214.647 173.945 214.759 171.948 214.871C170.123 214.973 168.262 215.076 167.021 213.934C165.351 212.395 165.869 209.494 164.428 207.738C163.09 206.107 160.93 206.201 158.695 206.294C157.115 206.36 155.498 206.425 154.108 205.883C152.3 205.176 151.077 203.505 149.505 202.369C144.462 198.727 137.504 201.261 131.652 203.379C125.799 205.498 117.941 206.475 114.527 201.281C112.964 198.905 112.726 195.62 110.477 193.875C109.495 193.112 108.257 192.764 107.18 192.142C104.189 190.413 102.79 186.371 104.075 183.171C102.857 181.8 100.865 181.853 98.8852 181.906C96.8559 181.96 94.839 182.015 93.6794 180.535C93.094 179.789 92.9073 178.808 92.8377 177.864C92.3129 170.761 98.2589 163.81 105.374 163.208L107.115 163.378C111.989 163.378 114.354 164.2 117.632 166.666C120.91 169.132 124.218 172.101 128.313 172.401C128.866 172.441 129.46 172.42 129.917 172.106C130.685 171.578 130.747 170.479 130.65 169.554C130.302 166.254 129.66 164.213 127.424 161.757C127.424 161.757 85.15 162.271 46.3742 152.087C46.968 153.357 45.9105 153.96 45.9105 153.96C42.0061 157.543 45.0558 164.214 49.2373 167.471C53.4181 170.728 58.873 173.113 60.7507 178.062C61.5546 180.182 61.6327 182.664 63.1169 184.379C64.5354 186.018 66.8457 186.499 68.9816 186.885C72.3689 187.496 75.7562 188.108 79.1441 188.72C81.5851 189.16 84.1549 189.661 86.03 191.281C87.0693 192.18 87.8186 193.365 88.7916 194.334C91.3021 196.838 94.9938 197.662 98.4793 198.336C101.964 199.011 105.654 199.742 108.275 202.131C110.896 204.52 111.765 209.184 109.073 211.492C106.784 213.455 102.571 213.391 101.726 216.282C101.352 217.563 101.897 218.954 102.725 220.001C105.811 223.9 112.273 224.167 114.777 228.461C115.894 230.379 116.106 232.953 117.932 234.219C118.968 234.936 120.295 235.045 121.488 235.453C127.017 237.341 128.477 243.044 128.643 248.871C128.643 248.871 134.33 248.871 139.204 248.871C144.079 248.871 150.578 248.061 150.578 248.061Z" fill="#007B67"/>
<path fill-rule="evenodd" clip-rule="evenodd" d="M123.654 184.285C122.276 183.916 120.793 183.55 119.451 184.031C118.109 184.513 117.131 186.23 117.934 187.406C121.167 186.624 124.543 187.38 127.857 187.675C131.171 187.971 134.879 187.65 137.197 185.27C132.451 185.255 128.743 185.729 124.175 184.448L123.654 184.285Z" fill="#007B67"/>
<path fill-rule="evenodd" clip-rule="evenodd" d="M142.523 183.124C142.816 185.415 141.895 187.827 140.148 189.344C139.557 189.858 138.797 190.495 139.022 191.244C139.24 191.973 140.197 192.114 140.96 192.118C144.097 192.136 147.234 192.154 150.371 192.171C150.995 192.175 151.79 192.054 151.94 191.451C152.039 191.053 151.781 190.661 151.508 190.356C150.259 188.962 148.365 188.168 146.493 188.253C147.182 185.988 145.622 183.305 143.31 182.777L142.523 183.124Z" fill="#007B67"/>
<path fill-rule="evenodd" clip-rule="evenodd" d="M157.886 190.492C157.378 190.523 156.868 190.553 156.36 190.584C155.405 192.066 156.071 194.355 157.708 195.016C159.345 195.677 161.473 194.396 161.564 192.637C161.654 190.876 159.548 189.379 157.942 190.113L157.886 190.492Z" fill="#007B67"/>
<path fill-rule="evenodd" clip-rule="evenodd" d="M249.282 134.205C249.282 159.326 241.245 176.811 241.245 176.811C241.245 176.811 240.346 177.965 238.721 175.534C237.096 173.102 234.55 171.737 233.995 172.217C233.44 172.697 234.984 177.69 235.479 180.426C235.585 181.019 236.748 183.396 236.69 184.043C236.571 185.364 235.632 180.779 234.253 184.043C233.195 185.642 230.469 185.407 230.191 184.853C229.379 183.232 232.95 183.038 232.628 181.612C231.677 177.395 230.327 175.804 228.353 173.76C228.02 173.416 227.593 173.057 227.122 173.146C226.488 173.265 226.294 174.049 226.103 174.665C224.777 178.914 218.724 179.341 215.79 182.695C214.575 184.083 213.888 185.995 212.3 186.938C210.053 188.272 206.957 186.885 205.634 184.634C204.309 182.384 204.33 179.606 204.606 177.011C207.887 176.631 211.253 175.41 213.293 172.82C215.333 170.229 215.536 166.055 213.09 163.841C212.35 163.171 210.827 163.778 210.354 162.971C209.881 162.163 211.506 161.352 213.943 159.732C217.193 157.3 218.818 154.869 218.818 152.438C218.818 152.438 246.845 145.551 249.282 134.205Z" fill="#007B67"/>
<path fill-rule="evenodd" clip-rule="evenodd" d="M212.724 218.483C211.099 218.483 212.328 213.096 211.137 210.274C210.545 208.87 209.293 207.873 208.322 206.698C206.717 204.754 205.857 202.213 205.953 199.696C205.982 198.932 206.12 198.117 206.649 197.563C207.093 197.096 207.737 196.89 208.354 196.702C213.417 195.154 218.479 193.606 223.541 192.058C225.975 191.315 228.652 190.579 230.995 191.567L233.439 192.738C233.439 192.738 225.723 206.327 212.724 218.483Z" fill="#007B67"/>
<path fill-rule="evenodd" clip-rule="evenodd" d="M36.4373 147.982C35.3088 147.799 34.0002 150.413 33.8643 152.696C33.7966 153.834 34.4464 154.88 34.9199 155.918C36.6818 159.777 36.9199 164.155 38.3247 168.157C39.7296 172.16 43.0018 176.103 47.2522 176.051C47.4655 176.048 47.6892 176.032 47.8687 175.918C48.3618 175.604 48.1946 174.851 47.9351 174.326C45.8024 170.02 41.4076 166.965 40.021 162.365C38.834 158.429 40.1127 154.202 41.6255 150.378L36.4373 147.982Z" fill="#007B67"/>
<path fill-rule="evenodd" clip-rule="evenodd" d="M131.96 190.933C131.106 191.041 130.271 191.295 129.502 191.68C129.152 191.856 128.807 192.066 128.567 192.376C128.363 192.641 128.265 193.059 128.511 193.287C128.688 193.451 128.961 193.439 129.202 193.418C130.615 193.292 132.118 193.132 133.227 192.249C133.309 192.184 133.393 192.106 133.408 192.003C133.42 191.927 133.392 191.85 133.359 191.78C133.194 191.426 132.899 191.126 132.533 190.99C132.166 190.854 131.729 190.895 131.415 191.127" fill="#007B67"/>
<path fill-rule="evenodd" clip-rule="evenodd" d="M129.785 179.323C129.545 179.413 129.44 179.689 129.363 179.934C129.268 180.24 129.171 180.557 129.204 180.877C129.236 181.196 129.434 181.521 129.745 181.603C130.108 181.698 130.462 181.446 130.746 181.2C130.909 181.058 131.075 180.906 131.152 180.705C131.283 180.359 131.106 179.958 130.825 179.718C130.544 179.478 130.18 179.362 129.826 179.252" fill="#007B67"/>
<path fill-rule="evenodd" clip-rule="evenodd" d="M137.526 179.432C136.853 179.317 136.138 179.837 136.042 180.512C135.947 181.186 136.489 181.885 137.167 181.962C137.845 182.037 138.529 181.478 138.587 180.799C138.602 180.617 138.576 180.43 138.487 180.271C138.423 180.158 138.328 180.065 138.228 179.98C137.889 179.69 137.479 179.481 137.044 179.377" fill="#007B67"/>
<path fill-rule="evenodd" clip-rule="evenodd" d="M136.079 173.159C136.55 173.323 137.048 173.591 137.198 174.067C137.353 174.555 137.057 175.102 136.618 175.37C136.179 175.637 135.638 175.673 135.126 175.627C134.404 175.562 133.696 175.346 133.061 174.998C132.679 174.788 132.277 174.408 132.404 173.993C132.48 173.744 132.725 173.589 132.951 173.458C133.342 173.23 133.518 172.697 134.33 172.697L136.079 173.159Z" fill="#007B67"/>
<path fill-rule="evenodd" clip-rule="evenodd" d="M249.282 134.61C249.282 149.604 197.816 161.757 134.33 161.757C70.8434 161.757 19.377 149.604 19.377 134.61C19.377 119.617 70.8434 107.463 134.33 107.463C197.816 107.463 249.282 119.617 249.282 134.61Z" fill="#058F79"/>
<path fill-rule="evenodd" clip-rule="evenodd" d="M127.044 161.758C124.513 159.18 123.665 157.341 123.769 154.462C123.862 151.901 124.958 149.832 126.787 148.034C128.589 146.262 130.467 144.568 132.415 142.957C134.766 141.012 137.41 138.866 137.783 135.842C138.171 132.697 135.866 129.799 133.196 128.083C130.525 126.367 127.416 125.427 124.738 123.723C123.551 122.968 122.338 121.771 122.592 120.391C122.716 119.714 123.179 119.154 123.651 118.653C125.352 116.852 126.625 115.991 129.665 114.36C132.578 112.799 134.05 110.504 132.876 107.463L141.254 107.512C138.936 110.384 139.282 113.287 140.017 114.754C143.595 121.893 148.466 123.718 155.406 123.313C157.588 123.186 159.75 122.652 161.933 122.772C165.168 122.95 168.23 124.603 170.429 126.977C172.016 128.691 173.178 130.764 173.964 132.955C174.582 134.68 174.578 138.334 175.544 139.917C176.463 141.426 178.253 142.332 179.881 142.853C182.636 143.735 184.935 143.997 188.76 143.927C196.968 143.778 194.402 143.117 201.758 143.117C205.008 143.117 208.738 143.549 212.319 146.358C215.252 148.66 217.749 151.963 218.558 153.085C218.736 153.334 192.822 158.922 171.7 160.542C150.578 162.163 127.144 161.861 127.044 161.758Z" fill="#71C4C3"/>
<path fill-rule="evenodd" clip-rule="evenodd" d="M35.2189 148.387C37.656 143.525 39.9571 144.51 42.1926 142.035C43.204 140.915 44.2179 139.538 43.9825 138.05C43.8667 137.316 43.457 136.668 43.0706 136.034C42.4053 134.941 41.7835 133.822 41.2072 132.681C40.7318 131.739 40.2771 130.727 40.3513 129.675C40.4105 128.843 40.8007 128.064 41.2976 127.392C43.4492 124.488 47.3145 123.536 50.8716 122.865C54.4286 122.195 58.2862 121.456 60.6998 118.764C61.4445 117.934 62.0091 116.954 62.759 116.128C64.6133 114.083 68.3264 112.746 70.9638 111.92C70.9638 111.92 45.881 115.456 31.2073 122.602C16.5342 129.748 19.0941 136.093 20.181 137.831C22.2206 141.094 24.6577 144.335 35.2189 148.387Z" fill="#71C4C3"/>
<path fill-rule="evenodd" clip-rule="evenodd" d="M144.802 158.111C144.686 158.111 144.596 158.025 144.51 157.842C144.375 157.557 144.258 157.263 144.139 156.97C144.105 156.886 144.063 156.844 143.965 156.828C142.72 156.621 141.539 156.225 140.431 155.621C140.349 155.576 140.276 155.516 140.173 155.446C140.246 155.418 140.283 155.404 140.319 155.39C140.182 155.305 140.177 155.272 140.298 155.169C140.702 154.825 141.1 154.473 141.517 154.145C142.131 153.662 142.856 153.47 143.624 153.418C143.735 153.41 143.785 153.374 143.816 153.271C143.866 153.103 143.92 152.935 143.993 152.778C144.104 152.536 144.303 152.442 144.57 152.439C144.587 152.439 144.602 152.438 144.618 152.438C145.544 152.438 146.411 152.708 147.273 153.003C147.365 153.034 147.46 153.059 147.551 153.09C147.712 153.146 147.742 153.24 147.6 153.334C147.438 153.443 147.249 153.514 147.066 153.587C146.955 153.632 146.833 153.651 146.674 153.693C146.972 153.772 147.228 153.846 147.488 153.91C147.954 154.027 148.423 154.14 148.892 154.252C149.053 154.291 149.211 154.312 149.368 154.312C149.612 154.312 149.852 154.261 150.096 154.145C150.914 153.757 151.768 153.453 152.646 153.225C152.739 153.201 152.837 153.19 152.932 153.19C152.944 153.19 152.955 153.191 152.966 153.191C153.137 153.195 153.214 153.296 153.146 153.452C153.091 153.578 153.011 153.703 152.91 153.794C152.68 154.004 152.431 154.192 152.19 154.389L152.101 154.465C151.876 154.712 151.892 155.434 152.109 155.691C152.222 155.826 152.322 155.983 152.385 156.146C152.463 156.345 152.38 156.442 152.17 156.478C152.114 156.488 152.06 156.493 152.007 156.493C151.744 156.493 151.518 156.377 151.308 156.205C150.994 155.948 150.653 155.734 150.272 155.587C149.909 155.448 149.545 155.372 149.179 155.372C148.864 155.372 148.549 155.427 148.233 155.547L148.136 155.592C148.223 155.634 148.305 155.665 148.378 155.71C148.478 155.771 148.516 155.861 148.452 155.971C148.304 156.229 148.167 156.491 148.002 156.738C147.914 156.87 147.824 156.934 147.731 156.934C147.641 156.934 147.549 156.873 147.453 156.755C147.349 156.627 147.269 156.431 147.137 156.388C147.117 156.382 147.096 156.379 147.075 156.379C146.953 156.379 146.804 156.467 146.67 156.502C146.558 156.531 146.444 156.554 146.332 156.58L146.335 156.613C146.549 156.916 146.531 156.896 146.297 157.17C146.09 157.413 145.857 157.637 145.625 157.856C145.547 157.931 145.457 157.983 145.353 157.983C145.308 157.983 145.26 157.973 145.21 157.951L145.099 157.985C144.981 158.068 144.885 158.111 144.802 158.111Z" fill="#55B2AB"/>
<path fill-rule="evenodd" clip-rule="evenodd" d="M164.137 137.041C164.079 137.041 164.011 137.01 163.926 136.951L163.846 136.927C163.81 136.942 163.776 136.949 163.744 136.949C163.67 136.949 163.605 136.912 163.55 136.859C163.384 136.702 163.218 136.543 163.07 136.369C162.903 136.172 162.889 136.188 163.043 135.972L163.045 135.947C162.965 135.929 162.883 135.913 162.803 135.892C162.708 135.867 162.601 135.804 162.514 135.804C162.498 135.804 162.483 135.806 162.47 135.81C162.376 135.841 162.318 135.981 162.244 136.072C162.176 136.157 162.11 136.2 162.046 136.2C161.979 136.2 161.915 136.154 161.853 136.06C161.735 135.884 161.637 135.696 161.531 135.512C161.486 135.435 161.512 135.37 161.583 135.326C161.635 135.294 161.694 135.272 161.756 135.242L161.688 135.209C161.462 135.124 161.237 135.084 161.012 135.084C160.75 135.084 160.49 135.139 160.23 135.238C159.959 135.342 159.715 135.497 159.491 135.68C159.341 135.802 159.18 135.885 158.991 135.885C158.954 135.885 158.915 135.882 158.875 135.875C158.725 135.848 158.666 135.78 158.721 135.637C158.766 135.521 158.838 135.409 158.919 135.313C159.073 135.129 159.086 134.613 158.925 134.436L158.861 134.383C158.688 134.242 158.511 134.107 158.346 133.957C158.275 133.892 158.217 133.802 158.178 133.713C158.129 133.602 158.184 133.529 158.307 133.526C158.315 133.526 158.323 133.526 158.331 133.526C158.399 133.526 158.469 133.534 158.535 133.551C159.163 133.714 159.771 133.931 160.357 134.208C160.531 134.291 160.703 134.328 160.878 134.328C160.989 134.328 161.102 134.313 161.217 134.285C161.552 134.204 161.886 134.124 162.22 134.04C162.405 133.994 162.588 133.942 162.801 133.885C162.687 133.855 162.601 133.842 162.521 133.809C162.39 133.757 162.255 133.707 162.139 133.63C162.039 133.562 162.059 133.495 162.175 133.454C162.24 133.432 162.307 133.415 162.372 133.392C162.988 133.182 163.607 132.989 164.268 132.989C164.28 132.989 164.292 132.989 164.303 132.989C164.495 132.991 164.637 133.059 164.716 133.231C164.768 133.344 164.807 133.464 164.842 133.584C164.864 133.658 164.9 133.683 164.98 133.689C165.528 133.726 166.046 133.863 166.485 134.208C166.783 134.442 167.066 134.694 167.355 134.94C167.442 135.013 167.438 135.037 167.339 135.098L167.445 135.137C167.371 135.187 167.319 135.23 167.26 135.262C166.468 135.693 165.625 135.977 164.736 136.124C164.666 136.136 164.636 136.166 164.612 136.226C164.527 136.436 164.443 136.645 164.347 136.849C164.285 136.979 164.221 137.041 164.137 137.041Z" fill="#55B2AB"/>
<path fill-rule="evenodd" clip-rule="evenodd" d="M131.712 120.023C131.662 120.023 131.623 119.986 131.586 119.908C131.528 119.786 131.478 119.66 131.428 119.535L131.353 119.473C130.82 119.385 130.314 119.215 129.839 118.956L129.728 118.881L129.791 118.857C129.732 118.821 129.729 118.807 129.782 118.763C129.955 118.615 130.125 118.464 130.304 118.323C130.568 118.117 130.878 118.034 131.207 118.012L131.289 117.949C131.311 117.877 131.334 117.805 131.365 117.738C131.413 117.634 131.498 117.594 131.612 117.592C131.62 117.592 131.626 117.592 131.633 117.592C132.03 117.592 132.401 117.708 132.771 117.834L132.89 117.872C132.959 117.895 132.972 117.936 132.911 117.976C132.842 118.022 132.761 118.053 132.682 118.085C132.634 118.104 132.582 118.112 132.514 118.129C132.641 118.164 132.752 118.195 132.862 118.223C133.063 118.274 133.264 118.322 133.465 118.37C133.534 118.386 133.601 118.395 133.668 118.395C133.773 118.395 133.876 118.373 133.981 118.323C134.332 118.157 134.697 118.027 135.074 117.929L135.21 117.915C135.285 117.917 135.317 117.96 135.288 118.027L135.187 118.174C135.088 118.263 134.981 118.344 134.878 118.429L134.84 118.46C134.743 118.567 134.751 118.876 134.844 118.987C134.892 119.044 134.935 119.111 134.962 119.181C134.995 119.267 134.959 119.308 134.87 119.324C134.846 119.328 134.822 119.33 134.799 119.33C134.686 119.33 134.59 119.28 134.5 119.207C134.366 119.097 134.219 119.005 134.056 118.942C133.901 118.882 133.744 118.85 133.588 118.85C133.453 118.85 133.318 118.874 133.182 118.924L133.141 118.944L133.245 118.994L133.276 119.107C133.213 119.216 133.154 119.33 133.084 119.435C133.046 119.491 133.007 119.519 132.967 119.519C132.929 119.519 132.889 119.493 132.848 119.442L132.713 119.285C132.704 119.282 132.695 119.281 132.686 119.281C132.634 119.281 132.57 119.319 132.512 119.334L132.368 119.367L132.369 119.382C132.461 119.511 132.453 119.502 132.353 119.62C132.264 119.724 132.164 119.82 132.064 119.914C132.031 119.946 131.992 119.969 131.948 119.969C131.928 119.969 131.908 119.964 131.887 119.955L131.839 119.969C131.789 120.005 131.748 120.023 131.712 120.023Z" fill="#55B2AB"/>
<path fill-rule="evenodd" clip-rule="evenodd" d="M99.4657 73.8332C101.741 73.8137 104.024 73.8818 106.299 73.863C107.332 73.8546 108.497 73.889 109.088 73.0442C109.693 72.1807 109.258 70.8669 108.353 70.3239C107.447 69.7808 106.258 69.9041 105.322 70.3926C106.627 69.2819 107.339 67.4095 106.8 65.7849C106.26 64.161 104.314 63.0535 102.716 63.6738C101.163 64.2772 100.488 66.0574 99.9873 67.6437C99.5691 66.3935 98.1083 65.5138 96.8576 65.9394C95.6069 66.3643 95.0436 68.2023 95.9828 69.1301C95.0937 68.576 94.0582 68.0576 93.0391 68.3003C92.0192 68.5429 91.2667 70.0579 92.5279 71.3165C92.8296 71.624 92.7399 71.6461 90.0049 71.5961C88.4524 71.5676 87.5542 71.624 87.1555 72.1658C86.8927 72.5239 86.749 73.0676 87.0749 73.3699C87.2661 73.5477 87.5477 73.5775 87.8085 73.5977L98.8348 73.8332H99.4657Z" fill="#FFFFFE"/>
<path fill-rule="evenodd" clip-rule="evenodd" d="M183.434 91.8933C184.342 91.8933 184.427 91.1102 184.412 90.6502C184.398 90.1902 184.068 89.7866 183.67 89.555C183.27 89.3247 182.807 89.2345 182.355 89.1489C180.941 88.8796 180.312 88.9354 178.894 89.1761C179.512 88.7518 179.916 87.6411 179.348 86.9118C178.926 86.3701 178.249 86.0963 177.583 86.2676C176.918 86.4382 176.4 86.9456 175.916 87.4328C175.936 86.6387 175.956 85.8342 175.775 85.0615C175.594 84.2881 175.186 83.5362 174.517 83.1048C173.296 82.3171 171.516 82.9049 170.727 84.1234C169.939 85.3411 170.147 86.9385 170.722 88.2704C170.722 88.2704 170.119 87.0955 169.556 86.8178C168.993 86.5394 168.276 86.5868 167.771 86.9599C166.846 87.6437 166.896 89.0217 167.095 90.1526C166.331 89.5732 165.499 88.9685 164.539 88.9413C163.58 88.914 162.55 89.7795 162.802 90.7034C163.03 91.5429 164.057 91.8381 164.924 91.9374L174.808 91.8933H183.434Z" fill="#FFFFFE"/>
<path fill-rule="evenodd" clip-rule="evenodd" d="M186.729 75.8719L186.729 75.8457L186.729 75.8719Z" fill="#584332"/>
<path fill-rule="evenodd" clip-rule="evenodd" d="M101.851 141.436C99.814 141.481 97.6897 141.274 95.9447 140.226C94.199 139.177 92.9438 137.104 93.3867 135.12C93.8303 133.137 96.3772 131.765 98.0806 132.879C96.1756 131.958 94.4917 130.585 93.2072 128.906C92.4325 127.894 91.7815 126.575 92.2361 125.385C92.4644 124.79 92.9412 124.323 93.4556 123.945C95.4361 122.492 98.1906 122.162 100.459 123.107C98.6699 123.595 96.6068 122.812 95.5948 121.261C94.5834 119.71 94.7011 117.512 95.8732 116.077C96.8572 114.873 98.4039 114.273 99.9252 113.939C101.753 113.536 104.105 113.691 104.914 115.376C105.02 115.598 105.092 115.859 105.003 116.089C104.854 116.472 104.352 116.571 103.942 116.526C102.395 116.355 101.219 115 100.641 113.559C100.366 112.872 100.192 112.086 100.481 111.406C100.847 110.546 101.85 110.123 102.785 110.081C105.11 109.977 107.452 111.404 109.068 113.075C110.778 114.842 112.044 117.011 112.981 119.282C113.918 121.553 114.105 124.232 112.997 126.425C111.888 128.617 109.307 130.123 106.912 129.553C108.778 129.705 110.604 130.334 112.166 131.365C113.422 132.195 114.599 133.537 114.358 135.02C114.223 135.848 113.666 136.543 113.073 137.137C110.393 139.828 106.525 141.297 102.73 141.065" fill="#4EAF4E"/>
<path fill-rule="evenodd" clip-rule="evenodd" d="M102.594 126.263C101.87 130.795 101.773 135.494 101.502 140.074C101.241 144.49 100.696 149.321 101.471 153.681C101.907 156.135 103.214 154.28 102.991 152.671C102.98 152.598 102.97 152.524 102.96 152.45C102.924 152.19 102.588 150.91 102.063 151.344L101.975 151.418C102.321 152.16 102.667 152.902 103.015 153.644C103.577 149.369 102.979 144.768 102.875 140.461C102.762 135.788 103.059 131.118 102.917 126.452C102.911 126.235 102.661 125.845 102.594 126.263Z" fill="#726242"/>
<path fill-rule="evenodd" clip-rule="evenodd" d="M102.535 132.169C101.397 130.052 99.8759 128.154 98.7422 126.026C98.2317 125.068 97.8974 126.97 98.1536 127.468C99.2086 129.518 100.497 131.842 102.126 133.488C102.649 134.017 102.677 132.432 102.535 132.169Z" fill="#726242"/>
<path fill-rule="evenodd" clip-rule="evenodd" d="M102.48 138.134C103.49 136.486 104.337 134.756 105.266 133.064C105.418 132.788 105.283 131.411 104.934 131.887C103.807 133.428 103.022 135.131 102.103 136.796C101.935 137.101 101.885 137.533 102.007 137.866C102.068 138.033 102.285 138.453 102.48 138.134Z" fill="#726242"/>
<path fill-rule="evenodd" clip-rule="evenodd" d="M102.699 129.012C103.195 128.224 103.635 127.412 104.081 126.595C104.234 126.316 104.259 125.958 104.166 125.653C104.122 125.509 103.908 125.132 103.749 125.417C103.263 126.288 102.782 127.153 102.347 128.049C102.237 128.275 102.251 128.635 102.346 128.862C102.402 128.994 102.561 129.231 102.699 129.012Z" fill="#726242"/>
<path fill-rule="evenodd" clip-rule="evenodd" d="M225.801 128.173C223.836 128.217 221.787 128.017 220.103 127.006C218.419 125.995 217.209 123.995 217.636 122.081C218.063 120.167 220.521 118.844 222.164 119.92C220.326 119.029 218.702 117.705 217.463 116.086C216.716 115.109 216.087 113.836 216.526 112.689C216.746 112.115 217.206 111.664 217.703 111.3C219.613 109.898 222.27 109.58 224.458 110.491C222.732 110.962 220.742 110.207 219.767 108.71C218.791 107.214 218.904 105.094 220.035 103.71C220.984 102.548 222.476 101.969 223.943 101.647C225.707 101.259 227.976 101.408 228.756 103.033C228.859 103.248 228.928 103.499 228.842 103.721C228.698 104.091 228.214 104.186 227.818 104.143C226.326 103.978 225.191 102.671 224.634 101.28C224.369 100.618 224.201 99.859 224.48 99.2037C224.833 98.3746 225.801 97.9658 226.703 97.9256C228.945 97.825 231.204 99.2018 232.764 100.813C234.413 102.518 235.634 104.611 236.538 106.802C237.442 108.993 237.623 111.577 236.553 113.692C235.484 115.807 232.993 117.26 230.684 116.71C232.484 116.857 234.245 117.464 235.752 118.458C236.964 119.258 238.099 120.553 237.866 121.984C237.736 122.783 237.199 123.453 236.627 124.026C234.042 126.622 230.311 128.038 226.65 127.815" fill="#4EAF4E"/>
<path fill-rule="evenodd" clip-rule="evenodd" d="M226.519 113.534C225.82 117.907 225.727 122.44 225.466 126.858C225.214 131.119 224.687 135.779 225.435 139.985C225.856 142.352 227.117 140.563 226.901 139.011C226.892 138.94 226.882 138.869 226.871 138.798C226.837 138.547 226.513 137.312 226.007 137.731L225.921 137.802C226.255 138.518 226.59 139.233 226.924 139.949C227.467 135.826 226.892 131.387 226.79 127.232C226.68 122.724 226.967 118.219 226.83 113.717C226.824 113.508 226.583 113.132 226.519 113.534Z" fill="#726242"/>
<path fill-rule="evenodd" clip-rule="evenodd" d="M226.462 119.232C225.364 117.19 223.896 115.36 222.803 113.307C222.31 112.382 221.988 114.217 222.234 114.697C223.252 116.674 224.496 118.917 226.066 120.505C226.571 121.015 226.598 119.486 226.462 119.232Z" fill="#726242"/>
<path fill-rule="evenodd" clip-rule="evenodd" d="M226.41 124.988C227.383 123.398 228.2 121.729 229.097 120.097C229.244 119.831 229.114 118.501 228.777 118.962C227.689 120.448 226.932 122.091 226.046 123.697C225.883 123.991 225.836 124.408 225.953 124.729C226.012 124.89 226.221 125.295 226.41 124.988Z" fill="#726242"/>
<path fill-rule="evenodd" clip-rule="evenodd" d="M226.618 116.189C227.097 115.428 227.521 114.644 227.952 113.856C228.099 113.587 228.124 113.242 228.033 112.948C227.991 112.81 227.785 112.446 227.632 112.721C227.164 113.56 226.699 114.395 226.279 115.259C226.173 115.477 226.186 115.824 226.278 116.043C226.332 116.171 226.486 116.399 226.618 116.189Z" fill="#726242"/>
<path fill-rule="evenodd" clip-rule="evenodd" d="M196.147 119.259C194.776 119.289 193.346 119.15 192.17 118.444C190.995 117.738 190.15 116.342 190.448 115.006C190.747 113.671 192.462 112.747 193.609 113.497C192.326 112.877 191.193 111.952 190.328 110.822C189.806 110.141 189.367 109.252 189.673 108.451C189.827 108.05 190.148 107.736 190.495 107.482C191.828 106.503 193.682 106.282 195.21 106.917C194.005 107.246 192.616 106.72 191.936 105.675C191.254 104.63 191.333 103.151 192.123 102.184C192.785 101.373 193.826 100.97 194.851 100.745C196.082 100.474 197.664 100.578 198.209 101.712C198.281 101.862 198.33 102.038 198.269 102.193C198.169 102.45 197.831 102.517 197.555 102.487C196.514 102.371 195.722 101.46 195.333 100.489C195.147 100.027 195.03 99.4972 195.225 99.0391C195.471 98.4611 196.147 98.1756 196.776 98.1477C198.341 98.077 199.919 99.0379 201.007 100.163C202.157 101.353 203.01 102.814 203.641 104.342C204.272 105.872 204.398 107.675 203.651 109.151C202.905 110.627 201.167 111.642 199.554 111.258C200.812 111.36 202.041 111.784 203.093 112.478C203.938 113.036 204.73 113.94 204.568 114.939C204.477 115.496 204.103 115.963 203.703 116.364C201.899 118.176 199.294 119.165 196.739 119.008" fill="#4EAF4E"/>
<path fill-rule="evenodd" clip-rule="evenodd" d="M196.649 109.042C196.161 112.093 196.096 115.257 195.914 118.341C195.738 121.314 195.37 124.567 195.892 127.503C196.186 129.154 197.066 127.905 196.915 126.822L196.895 126.674C196.87 126.498 196.644 125.637 196.291 125.929L196.231 125.979C196.464 126.478 196.698 126.978 196.931 127.477C197.31 124.6 196.908 121.501 196.838 118.602C196.761 115.455 196.961 112.311 196.866 109.169C196.861 109.023 196.694 108.761 196.649 109.042Z" fill="#726242"/>
<path fill-rule="evenodd" clip-rule="evenodd" d="M196.609 113.017C195.842 111.593 194.818 110.315 194.055 108.883C193.711 108.236 193.486 109.517 193.658 109.853C194.369 111.233 195.236 112.798 196.332 113.906C196.685 114.262 196.704 113.195 196.609 113.017Z" fill="#726242"/>
<path fill-rule="evenodd" clip-rule="evenodd" d="M196.571 117.034C197.251 115.925 197.821 114.76 198.447 113.62C198.549 113.435 198.458 112.507 198.223 112.828C197.464 113.866 196.936 115.013 196.317 116.133C196.204 116.339 196.171 116.629 196.252 116.854C196.294 116.966 196.44 117.249 196.571 117.034Z" fill="#726242"/>
<path fill-rule="evenodd" clip-rule="evenodd" d="M196.718 110.894C197.052 110.363 197.348 109.816 197.649 109.265C197.751 109.078 197.768 108.837 197.706 108.632C197.676 108.535 197.532 108.281 197.425 108.473C197.098 109.059 196.774 109.642 196.481 110.245C196.407 110.397 196.416 110.64 196.48 110.792C196.517 110.882 196.625 111.041 196.718 110.894Z" fill="#726242"/>
<path fill-rule="evenodd" clip-rule="evenodd" d="M184.114 134.861C184.114 134.861 180.042 130.8 180.042 124.709C180.042 118.617 185.131 113.541 185.131 113.541C185.131 113.541 190.22 118.617 190.22 124.709C190.22 130.8 185.131 134.861 185.131 134.861" fill="#4EAF4E"/>
<path fill-rule="evenodd" clip-rule="evenodd" d="M187.646 125.113C186.871 126.236 185.989 127.985 185.335 129.142C185.339 127.485 185.342 125.838 185.344 124.241C185.898 123.288 186.406 122.325 186.734 121.253C186.76 121.168 186.689 120.826 186.592 121.016C186.209 121.771 185.747 122.459 185.344 123.187C185.345 121.868 185.346 120.578 185.346 119.374C185.346 119.167 185.168 119.039 185.139 119.317C184.916 121.486 184.733 123.892 184.586 126.368C184.122 125.342 184.043 124.179 183.556 123.159C183.486 123.015 183.431 123.258 183.444 123.317C183.738 124.786 183.779 126.321 184.436 127.7L184.505 127.794C184.436 129.096 184.38 130.406 184.334 131.711C183.765 130.359 183.084 129.096 182.309 127.834C182.222 127.693 182.188 128.088 182.211 128.148C182.888 129.865 183.512 131.59 184.241 133.285L184.28 133.343C184.208 135.881 184.176 138.354 184.193 140.584C184.205 142.025 185.231 141.993 185.252 140.558C185.295 137.586 185.318 134.172 185.33 130.729C186.24 128.957 187.151 127.197 187.721 125.274C187.731 125.243 187.703 125.031 187.646 125.113Z" fill="#726242"/>
<path fill-rule="evenodd" clip-rule="evenodd" d="M75.0944 114.833C74.0635 114.856 72.9884 114.751 72.1045 114.22C71.2206 113.689 70.5858 112.64 70.8102 111.636C71.0339 110.631 72.3237 109.937 73.1861 110.501C72.2216 110.034 71.3689 109.339 70.7185 108.489C70.3269 107.977 69.9972 107.309 70.2274 106.707C70.3425 106.405 70.5845 106.169 70.8447 105.978C71.8469 105.242 73.2414 105.075 74.39 105.554C73.484 105.801 72.4401 105.404 71.9276 104.619C71.4157 103.834 71.4749 102.721 72.0687 101.995C72.5669 101.385 73.35 101.081 74.1194 100.912C75.0456 100.708 76.2359 100.787 76.6456 101.639C76.6996 101.752 76.7354 101.884 76.6905 102.001C76.615 102.195 76.3607 102.245 76.1533 102.222C75.3702 102.136 74.775 101.449 74.4824 100.719C74.3432 100.372 74.2547 99.974 74.4017 99.6294C74.5864 99.1948 75.0944 98.98 75.5679 98.9592C76.7451 98.9067 77.9302 99.6288 78.749 100.475C79.614 101.369 80.2553 102.467 80.7295 103.618C81.2043 104.767 81.2986 106.123 80.7373 107.233C80.176 108.343 78.8693 109.106 77.657 108.817C78.602 108.894 79.5262 109.213 80.3171 109.734C80.9532 110.154 81.549 110.834 81.4267 111.585C81.3584 112.004 81.0762 112.355 80.7763 112.656C79.4196 114.019 77.4612 114.762 75.5399 114.644" fill="#4EAF4E"/>
<path fill-rule="evenodd" clip-rule="evenodd" d="M75.4722 107.151C75.1054 109.445 75.0566 111.825 74.9194 114.143C74.7873 116.379 74.5109 118.824 74.9037 121.032C75.1242 122.274 75.7857 121.335 75.6725 120.521L75.6569 120.409C75.6387 120.277 75.4689 119.629 75.2029 119.849L75.1587 119.886C75.3337 120.262 75.5093 120.637 75.6849 121.013C75.9691 118.849 75.6673 116.519 75.614 114.339C75.5567 111.973 75.707 109.61 75.6354 107.247C75.6322 107.137 75.506 106.939 75.4722 107.151Z" fill="#726242"/>
<path fill-rule="evenodd" clip-rule="evenodd" d="M75.442 110.14C74.8658 109.069 74.0957 108.108 73.5214 107.031C73.2632 106.546 73.0934 107.509 73.2235 107.761C73.7575 108.799 74.4098 109.976 75.2345 110.809C75.4992 111.077 75.5136 110.274 75.442 110.14Z" fill="#726242"/>
<path fill-rule="evenodd" clip-rule="evenodd" d="M75.415 113.161C75.9255 112.327 76.3542 111.451 76.825 110.595C76.9018 110.455 76.8335 109.757 76.6566 109.999C76.0862 110.779 75.6888 111.641 75.2238 112.484C75.1379 112.639 75.1132 112.857 75.175 113.026C75.2056 113.11 75.3155 113.323 75.415 113.161Z" fill="#726242"/>
<path fill-rule="evenodd" clip-rule="evenodd" d="M75.525 108.543C75.776 108.144 75.9991 107.733 76.2248 107.319C76.3016 107.178 76.3146 106.997 76.2677 106.843C76.2456 106.77 76.137 106.579 76.0563 106.723C75.8111 107.164 75.5672 107.602 75.3468 108.055C75.2915 108.169 75.298 108.352 75.3461 108.467C75.3747 108.534 75.4554 108.654 75.525 108.543Z" fill="#726242"/>
<path fill-rule="evenodd" clip-rule="evenodd" d="M62.661 136.092C61.5124 136.117 60.3143 136 59.3296 135.409C58.3455 134.817 57.6373 133.648 57.887 132.529C58.1374 131.41 59.5735 130.636 60.5348 131.265C59.4597 130.745 58.5101 129.971 57.7855 129.024C57.3491 128.453 56.9816 127.709 57.2379 127.037C57.3667 126.702 57.636 126.439 57.926 126.226C59.0428 125.406 60.5966 125.22 61.8759 125.753C60.8665 126.028 59.7029 125.587 59.1325 124.712C58.5621 123.837 58.6285 122.598 59.2893 121.789C59.8447 121.109 60.7169 120.771 61.5748 120.582C62.6063 120.355 63.9319 120.442 64.3884 121.393C64.4483 121.518 64.4893 121.665 64.4385 121.795C64.3546 122.011 64.0717 122.067 63.8402 122.042C62.9673 121.945 62.3046 121.181 61.9787 120.368C61.8233 119.981 61.7257 119.537 61.8883 119.153C62.0945 118.669 62.661 118.43 63.1878 118.406C64.499 118.347 65.82 119.152 66.7318 120.095C67.6957 121.091 68.4099 122.315 68.9387 123.596C69.4674 124.877 69.5728 126.388 68.9478 127.624C68.3221 128.861 66.8665 129.711 65.5156 129.389C66.5686 129.474 67.5982 129.83 68.4788 130.411C69.1871 130.879 69.8512 131.636 69.7152 132.472C69.6391 132.939 69.325 133.331 68.9907 133.667C67.4792 135.184 65.2977 136.012 63.1566 135.881" fill="#4EAF4E"/>
<path fill-rule="evenodd" clip-rule="evenodd" d="M63.0805 127.533C62.6721 130.089 62.6174 132.739 62.4646 135.322C62.3176 137.813 62.0099 140.538 62.447 142.997C62.6935 144.381 63.4304 143.335 63.3042 142.427L63.2867 142.303C63.2665 142.156 63.0773 141.434 62.7813 141.679L62.7312 141.72C62.9264 142.139 63.1221 142.557 63.3179 142.976C63.6346 140.565 63.2984 137.97 63.2392 135.541C63.1748 132.905 63.3426 130.272 63.2626 127.639C63.2587 127.517 63.1182 127.297 63.0805 127.533Z" fill="#726242"/>
<path fill-rule="evenodd" clip-rule="evenodd" d="M63.0466 130.863C62.4046 129.67 61.5468 128.6 60.9074 127.399C60.6193 126.858 60.4307 127.931 60.575 128.212C61.1702 129.368 61.8967 130.679 62.8157 131.607C63.111 131.905 63.1266 131.011 63.0466 130.863Z" fill="#726242"/>
<path fill-rule="evenodd" clip-rule="evenodd" d="M63.0172 134.228C63.587 133.298 64.0637 132.323 64.5886 131.368C64.6738 131.213 64.5977 130.435 64.4013 130.705C63.7652 131.574 63.3222 132.534 62.8039 133.473C62.7089 133.645 62.6816 133.889 62.7499 134.076C62.7844 134.171 62.9073 134.408 63.0172 134.228Z" fill="#726242"/>
<path fill-rule="evenodd" clip-rule="evenodd" d="M63.139 129.084C63.4181 128.639 63.6672 128.18 63.9182 127.72C64.0047 127.563 64.019 127.361 63.9664 127.19C63.941 127.109 63.8207 126.896 63.7309 127.057C63.4577 127.547 63.1859 128.035 62.94 128.54C62.8782 128.668 62.886 128.871 62.9394 128.998C62.9712 129.074 63.061 129.207 63.139 129.084Z" fill="#726242"/>
<path fill-rule="evenodd" clip-rule="evenodd" d="M82.004 141.371C82.004 141.371 77.4629 136.842 77.4629 130.048C77.4629 123.254 83.139 117.592 83.139 117.592C83.139 117.592 88.8144 123.254 88.8144 130.048C88.8144 136.842 83.139 141.371 83.139 141.371" fill="#4EAF4E"/>
<path fill-rule="evenodd" clip-rule="evenodd" d="M85.9443 130.5C85.0793 131.752 84.0965 133.704 83.3668 134.993C83.372 133.145 83.3746 131.308 83.3759 129.527C83.9944 128.464 84.5602 127.39 84.9271 126.195C84.9563 126.1 84.8763 125.718 84.7684 125.93C84.3411 126.772 83.8266 127.539 83.3765 128.352C83.3778 126.88 83.3785 125.441 83.3791 124.1C83.3791 123.868 83.1814 123.725 83.1489 124.035C82.8991 126.455 82.6949 129.139 82.5316 131.9C82.0146 130.755 81.9255 129.457 81.3817 128.321C81.305 128.159 81.2438 128.43 81.2568 128.496C81.5853 130.135 81.6321 131.847 82.3638 133.385L82.4412 133.491C82.3651 134.942 82.3014 136.403 82.25 137.858C81.6159 136.35 80.8568 134.942 79.9918 133.534C79.8956 133.377 79.8565 133.817 79.8832 133.885C80.637 135.799 81.3336 137.723 82.1459 139.614L82.1902 139.679C82.1095 142.51 82.0738 145.267 82.0939 147.755C82.1063 149.363 83.2503 149.327 83.2744 147.726C83.3225 144.411 83.3472 140.603 83.3609 136.764C84.3762 134.787 85.3921 132.824 86.0276 130.68C86.0386 130.645 86.008 130.408 85.9443 130.5Z" fill="#726242"/>
<path fill-rule="evenodd" clip-rule="evenodd" d="M177.333 112.575C177.333 112.575 174.478 109.727 174.478 105.452C174.478 101.179 178.048 97.6177 178.048 97.6177C178.048 97.6177 181.618 101.179 181.618 105.452C181.618 109.727 178.048 112.575 178.048 112.575" fill="#4EAF4E"/>
<path fill-rule="evenodd" clip-rule="evenodd" d="M179.814 105.737C179.27 106.524 178.652 107.752 178.193 108.563C178.196 107.4 178.197 106.245 178.198 105.125C178.587 104.456 178.944 103.78 179.174 103.028C179.193 102.969 179.143 102.729 179.074 102.862C178.806 103.392 178.482 103.874 178.199 104.386C178.2 103.46 178.2 102.555 178.2 101.711C178.2 101.565 178.076 101.475 178.056 101.67C177.899 103.192 177.77 104.881 177.667 106.617C177.342 105.897 177.286 105.081 176.944 104.366C176.896 104.264 176.857 104.435 176.866 104.476C177.073 105.507 177.102 106.584 177.562 107.552L177.61 107.618C177.563 108.532 177.523 109.45 177.491 110.365C177.091 109.417 176.614 108.532 176.07 107.646C176.009 107.546 175.984 107.823 176.001 107.866C176.476 109.07 176.914 110.28 177.425 111.47L177.453 111.511C177.402 113.291 177.379 115.026 177.392 116.591C177.4 117.603 178.12 117.58 178.135 116.573C178.165 114.488 178.181 112.092 178.189 109.677C178.828 108.434 179.467 107.199 179.867 105.85L179.814 105.737Z" fill="#726242"/>
<path fill-rule="evenodd" clip-rule="evenodd" d="M95.5008 108.912C95.5008 108.912 93.3623 106.779 93.3623 103.58C93.3623 100.381 96.0355 97.7148 96.0355 97.7148C96.0355 97.7148 98.708 100.381 98.708 103.58C98.708 106.779 96.0355 108.912 96.0355 108.912" fill="#4EAF4E"/>
<path fill-rule="evenodd" clip-rule="evenodd" d="M97.3568 103.793C96.9496 104.382 96.4872 105.301 96.1431 105.908C96.1457 105.038 96.147 104.173 96.1477 103.334C96.4384 102.833 96.7051 102.328 96.8781 101.764C96.8917 101.72 96.854 101.54 96.8033 101.64C96.6023 102.037 96.3597 102.398 96.1477 102.78C96.1483 102.088 96.149 101.41 96.149 100.778C96.149 100.669 96.0553 100.602 96.041 100.748C95.9233 101.887 95.827 103.152 95.7496 104.451C95.5064 103.912 95.4647 103.301 95.2085 102.766C95.1721 102.69 95.1434 102.817 95.1499 102.849C95.3047 103.62 95.3262 104.426 95.6709 105.15L95.7073 105.2C95.6716 105.884 95.6417 106.572 95.6176 107.257C95.3191 106.547 94.9613 105.884 94.5542 105.221C94.5086 105.147 94.4904 105.354 94.5028 105.386C94.8579 106.288 95.1857 107.194 95.5682 108.084L95.589 108.114C95.5512 109.447 95.5343 110.746 95.5434 111.917C95.5499 112.675 96.0885 112.657 96.0995 111.904C96.123 110.343 96.134 108.55 96.1405 106.742C96.6186 105.811 97.0973 104.886 97.3964 103.877L97.3568 103.793Z" fill="#726242"/>
<path fill-rule="evenodd" clip-rule="evenodd" d="M171.667 116.916L171.455 116.106L171.31 115.718L171.115 115.669L171.098 115.604L171.049 114.777L171.31 112.2L171.277 110.645L171.082 109.753L170.992 109.515L170.968 109.283L170.041 108.578L169.14 108.31L167.97 107.703L166.484 106.73L165.923 106.39L165.533 105.636L165.216 104.639L164.83 104.467L164.656 104.226L164.241 103.886L163.803 103.181L163.169 101.382L162.657 99.5828L161.926 97.4677L161.658 96.5925L161.448 96.3518L161.804 96.0735L161.885 95.62L161.755 95.5389L161.414 95.6849L161.044 95.945L160.684 95.6927L160.651 95.4902L160.927 94.955L161.057 94.9718L161.17 94.8259L160.878 94.5664L160.504 94.5826L160.488 94.6961L160.569 94.8259L160.374 95.1821L160.196 95.4584L160.127 95.4786L160.101 94.8096L160.098 94.7448L160.228 94.6799L160.212 94.5508L159.611 94.5664L159.546 94.6799L159.692 94.7934V95.0847L159.678 95.5843L159.367 95.5713L159.156 95.7335L158.897 96.1384L158.49 96.3006L157.905 96.625L157.304 97.0785L157.076 97.3944L157.198 97.7597L157.221 97.8369L157.232 97.87L157.271 98.003L157.49 97.9783L158.392 97.8564L158.831 97.905H159.489L159.781 97.8083L160.244 98.2456L160.61 100.069L160.757 102.16L160.858 102.523L161.018 103.091L161.829 105.977L161.853 107.946L161.682 109.162L161.951 110.499L162.187 110.803L162.275 111.876L162.389 112.979L162.828 114.097L162.941 115.053L162.974 115.572L162.941 115.945L162.91 116.187L163.072 116.495L163.185 116.819L163.25 117.89V119.802L163.283 120.013L163.072 120.32L162.925 120.742L162.844 121.261L162.941 121.358H163.222L163.218 121.366L163.169 121.706L163.656 121.828L164.29 121.73L164.534 121.633V121.439L164.412 121.025L164.522 120.966H164.523L164.68 120.879L164.85 120.588L164.631 119.931L164.461 118.011L164.388 116.771L164.583 116.504L164.567 116.398L164.485 115.847L164.728 113.854L165.022 112.979L165.131 113.059H165.13L165.679 113.465L167.336 113.854L167.556 113.787L167.734 115.037L168.206 116.333L168.434 117.047L168.32 117.598L167.799 119.802L167.621 120.661L167.442 120.887L167.215 121.39L167.394 121.52H167.962L168.239 121.439V121.082L168.368 120.84L168.466 120.693L168.335 120.304L168.417 119.558L168.889 118.23L169.327 117.273L169.427 116.928L169.481 117.306L169.725 117.914L169.628 119.251L169.457 120.709L169.36 121.025L169.091 121.439L169.087 121.457L168.945 121.974L169.457 122.046L170.091 122.119L170.237 121.876L170.115 121.341L170.359 121.171V120.515L170.335 119.543L170.432 118.23L170.651 117.257L170.383 116.504L170.407 114.607L170.919 112.76L171.041 111.502L171.114 112.103L171.017 113.076L170.887 114.242L170.871 115.167L171.009 115.739L170.936 115.896L171.033 116.463L171.196 117.095L171.407 117.792L171.423 118.667L171.326 119.104L171.585 118.765L171.748 117.679L171.667 116.916Z" fill="#76573E"/>
<path fill-rule="evenodd" clip-rule="evenodd" d="M116.858 104.492L117.345 104.179L117.799 104.252L118.043 104.002L119.058 103.63L119.989 103.689H122.188L122.569 103.669L123.182 103.61L123.5 103.474L123.986 103.258L124.148 103.265L124.393 103.276L124.43 103.277L124.98 103.571L125.72 103.728L126.461 103.689L127.064 103.465L127.306 103.376L127.662 103.33L127.634 103.295L127.601 102.908L127.476 102.846L126.799 102.709L125.804 102.372L125.551 102.454H125.128L124.494 102.415L124.177 102.278L124.219 102.121L124.452 102.18L124.98 102.219L125.382 102.14L125.538 102.132L125.297 101.827L125.049 100.976L124.684 100.788L124.24 100.514L123.817 100.455L123.437 100.534L123.394 100.377L123.606 100.24L123.944 100.142L124.091 100.004L124.049 99.6515V99.4166L124.177 99.4951L124.303 100.201L124.705 100.436L125.057 100.658L125.17 99.9071L125.297 99.8513V98.9073L125.128 98.3974L125.191 98.339L125.466 98.7503L125.636 99.3582V99.7034L125.932 99.5736L126.222 99.4997L126.207 99.2797L126.143 98.8483L125.89 98.594L125.699 98.4564C125.742 98.3786 125.89 98.437 125.89 98.437L126.164 98.5544L126.419 98.2994L126.588 98.1431L126.693 98.241L126.524 98.4564L126.461 98.7309L126.585 99.4069L126.778 99.3582L127.243 99.1818L127.412 98.6718L127.518 98.6913L127.56 99.2797L127.074 99.5931L126.143 99.828L125.551 100.102L125.424 100.906L125.848 101.905L126.313 102.121L127.01 102.278L127.772 102.533L128.173 102.905L128.555 102.709L128.921 102.662L128.872 102.298L128.893 101.964L129.02 101.925V102.082L129.104 102.454L129.229 102.634L129.582 102.654L129.464 102.356L129.528 102.023L129.633 101.611L129.717 101.592V101.768L129.675 102.082L129.76 102.415L129.993 102.631L130.099 102.435L130.204 102.062L130.183 101.69H130.31L130.374 101.945V102.356L130.341 102.57L130.521 102.533L130.648 102.278L130.902 101.827L131.156 101.671C131.156 101.671 131.241 101.768 131.177 101.788C131.114 101.807 130.923 102.18 130.923 102.18L130.87 102.409L130.796 102.729L130.416 102.905L129.358 103.023L128.385 103.062L128.266 103.395L128.433 103.48L128.452 103.491L128.461 103.496L128.504 103.52L128.514 103.526L128.555 103.55L128.562 103.555L128.598 103.576L128.603 103.579L128.638 103.601L128.644 103.605L128.674 103.624L128.679 103.627L128.703 103.642L128.705 103.643L128.724 103.656L128.728 103.658L128.739 103.666L128.741 103.667L128.745 103.669L128.872 103.924L129.21 104.179L129.781 104.551L130.077 104.669L130.119 104.826L129.929 105.119L129.697 105.296L129.57 105.433L129.388 105.419L129.316 105.413L128.978 105.276L128.491 105.139L127.941 105.197L127.433 105.668L127.201 106.276L127.037 106.762L126.989 106.902L126.82 107.001L126.693 106.961L126.566 107.138L126.228 107.334L125.636 107.569L125.504 107.7L125.911 107.883L126.379 108.254L126.503 108.353L126.778 108.47L126.82 108.784L126.693 109.098L126.207 110.116L126.037 110.312L125.594 110.41L125.001 110.567L125.086 109.959L125.144 109.874L125.297 109.646L125.381 109.621V109.621L125.857 109.479L125.953 109.45L126.08 109.156V108.96L125.572 108.647L124.735 108.282L124.726 108.588L124.79 109.117L124.62 109.568L124.599 109.979L124.769 111.312L124.946 111.449L125.022 111.507L125.255 111.919H124.367L124.049 111.841L123.796 111.762L123.986 111.273L124.113 110.802L124.091 110.312L124.028 109.725L123.859 109.352L123.796 108.745L123.627 107.869L123.492 107.866L123.267 107.863L122.548 107.804L121.871 107.667L120.666 107.353L120.326 107.328L119.82 108.079L119.291 108.509L119.122 108.823L119.164 108.999L119.883 109.882L120.306 110.352L120.666 110.567L120.835 110.685L120.898 110.842L120.91 110.852L121.195 111.116L121.258 111.253L120.497 111.351L120.236 111.278L120.073 111.234L119.925 111.136L119.735 110.508L119.541 110.243L119.333 109.959L118.635 109.333L118.382 109.019L118.354 108.894L118.254 109.098L118.276 109.293L118.635 110.332L118.953 110.959L119.206 111.155L119.312 111.312L119.587 111.528L119.756 111.802L118.995 111.899L118.529 111.743L118.419 111.699L118.233 111.626L118.043 111.507L118.106 111.175L118.191 110.606L117.98 110.078L117.515 109.176L117.303 108.784L117.282 108.627L117.726 108.177L117.729 108.111L117.738 107.877L117.747 107.687L117.578 107.177L117.345 106.315L117.387 105.452L117.47 105.113C117.27 105.177 117.049 105.237 117.049 105.237L116.52 105.315L116.457 105.197L116.858 104.492Z" fill="#76573E"/>
<path fill-rule="evenodd" clip-rule="evenodd" d="M166.912 69.1684C167.311 69.3662 167.717 69.5194 168.05 69.8269C168.409 70.1591 168.536 70.5522 168.771 70.9584C169.035 71.4138 169.183 70.6483 169.142 70.44C168.955 69.5213 167.864 68.6571 166.91 69.0821L166.912 69.1684Z" fill="#584332"/>
<path fill-rule="evenodd" clip-rule="evenodd" d="M171.216 69.0816C170.345 68.6994 169.177 69.428 169 70.3246C168.961 70.5199 168.955 70.7742 169.051 70.9579C169.106 71.0617 169.241 71.1856 169.331 71.0331C169.579 70.614 169.704 70.1871 170.072 69.8406C170.407 69.526 170.816 69.3703 171.218 69.1672L171.216 69.0816Z" fill="#584332"/>
<path fill-rule="evenodd" clip-rule="evenodd" d="M139.291 85.3754C139.69 85.5733 140.096 85.7264 140.429 86.0339C140.788 86.3654 140.915 86.7593 141.15 87.1654C141.414 87.6209 141.562 86.8553 141.521 86.647C141.335 85.7283 140.243 84.8642 139.289 85.2891L139.291 85.3754Z" fill="#584332"/>
<path fill-rule="evenodd" clip-rule="evenodd" d="M143.594 85.2891C142.723 84.9069 141.555 85.6355 141.378 86.5322C141.339 86.7274 141.333 86.9818 141.429 87.1654C141.484 87.2692 141.618 87.3931 141.71 87.2406C141.958 86.8215 142.082 86.3946 142.45 86.0475C142.785 85.7335 143.194 85.5778 143.596 85.3747L143.594 85.2891Z" fill="#584332"/>
<path fill-rule="evenodd" clip-rule="evenodd" d="M183.617 76.1959C184.749 76.6877 185.871 77.4085 186.649 78.3836C186.919 78.7223 186.992 77.7452 186.9 77.5759C186.611 77.0452 186.235 76.5975 185.665 76.351C185.037 76.0804 184.293 76.037 183.627 75.9059C183.547 75.8903 183.549 76.1661 183.617 76.1959Z" fill="#584332"/>
<path fill-rule="evenodd" clip-rule="evenodd" d="M189.503 75.9059C188.204 76.1596 186.954 76.2238 186.263 77.5026C186.158 77.6966 186.223 78.7346 186.51 78.3778C187.287 77.4117 188.402 76.6864 189.527 76.1953C189.596 76.1648 189.583 75.8903 189.503 75.9059Z" fill="#584332"/>
<path fill-rule="evenodd" clip-rule="evenodd" d="M155.514 78.1361C156.892 78.735 158.258 79.6121 159.205 80.7988C159.534 81.2114 159.623 80.0222 159.51 79.8159C159.159 79.1697 158.701 78.6247 158.006 78.3249C157.243 77.9954 156.337 77.9422 155.526 77.7825C155.428 77.7631 155.431 78.0998 155.514 78.1361Z" fill="#584332"/>
<path fill-rule="evenodd" clip-rule="evenodd" d="M162.678 77.7826C161.097 78.0914 159.575 78.1699 158.735 79.727C158.606 79.9625 158.685 81.227 159.035 80.7923C159.981 79.6154 161.339 78.733 162.708 78.1348C162.792 78.0979 162.776 77.7631 162.678 77.7826Z" fill="#584332"/>
<path fill-rule="evenodd" clip-rule="evenodd" d="M179.145 64.3369C179.891 64.6619 180.632 65.1369 181.145 65.7798C181.323 66.003 181.37 65.3594 181.31 65.2471C181.12 64.8975 180.872 64.6023 180.495 64.4401C180.082 64.261 179.591 64.2318 179.152 64.1455L179.145 64.3369Z" fill="#584332"/>
<path fill-rule="evenodd" clip-rule="evenodd" d="M183.027 64.1455C182.171 64.3129 181.346 64.3557 180.89 65.1991C180.821 65.327 180.864 66.0114 181.053 65.7766C181.566 65.1388 182.301 64.6606 183.043 64.3369L183.027 64.1455Z" fill="#584332"/>
<path fill-rule="evenodd" clip-rule="evenodd" d="M199.455 81.3555C200.201 81.6805 200.941 82.1554 201.454 82.7984C201.633 83.0216 201.681 82.378 201.62 82.2657C201.43 81.916 201.181 81.6208 200.805 81.4586C200.391 81.2796 199.901 81.2504 199.462 81.1641L199.455 81.3555Z" fill="#584332"/>
<path fill-rule="evenodd" clip-rule="evenodd" d="M203.337 81.1641C202.48 81.3314 201.656 81.3743 201.2 82.2177C201.131 82.3455 201.174 83.03 201.364 82.7951C201.876 82.1574 202.612 81.6792 203.353 81.3555L203.337 81.1641Z" fill="#584332"/>
<path fill-rule="evenodd" clip-rule="evenodd" d="M78.743 70.5474L78.7299 70.0608L78.6428 69.3439L78.4711 68.9216L78.3176 68.5453L78.0236 68.084L77.8005 67.9607L77.6048 67.853L77.3609 67.6227L77.1547 67.4041L77.1878 67.3794L77.2418 67.3398L77.3238 67.2795L77.461 67.1484L77.5865 67.0732L77.6991 66.9175V66.8986L77.7927 66.8675H77.8363L77.8116 66.8175L77.6815 66.7896L77.6691 66.7611L77.6301 66.6683L77.4174 66.5496L77.0857 66.4374L76.8607 66.4309L76.6786 66.4834L76.6233 66.4996L76.5426 66.4756L76.5322 66.473C76.4731 66.4555 76.3989 66.4354 76.3586 66.425L76.354 66.4237L76.3417 66.4205L76.3378 66.4198L76.3293 66.4185L76.1544 66.3439L76.0418 66.1253L75.8727 66.0319L75.8044 66.0033L75.21 65.7574L74.9765 65.6692L74.0724 65.3273L73.3466 65.084L73.3232 65.1177L73.2906 65.1651L73.3407 65.2339L73.4721 65.3143L73.4344 65.3707L73.5033 65.4518L73.6347 65.5265L73.716 65.5394L73.8285 65.6387L74.0028 65.7931L74.0275 65.8145L74.0861 65.8658L74.2038 65.9696L74.2129 65.9767L74.2259 65.9878L74.2851 66.0351L74.3345 66.076L74.4288 66.1441L74.5101 66.1941L74.516 66.2687L74.5472 66.3193L74.5667 66.3128V66.3134L74.5914 66.3063L74.5947 66.3147L74.6077 66.3472L74.6415 66.4309L74.6259 66.4646L74.6038 66.512L74.6135 66.5379L74.6415 66.6119L74.6851 66.6742L74.7163 66.7553L74.6974 66.8986V66.9012L74.6968 66.9038L74.6935 66.9214V66.9239L74.6786 67.0732L74.7072 67.1056H74.7066L74.7079 67.1063L74.7144 67.1114L74.7183 67.114L74.7248 67.1173H74.7241L74.7352 67.1231V67.1238L74.7287 67.1796L74.7241 67.1925L74.7228 67.1984L74.7215 67.2029L74.7222 67.2023L74.7352 67.3418L74.741 67.356L74.7423 67.3625L74.7469 67.3768L74.7488 67.3839L74.7534 67.4028L74.7547 67.406L74.7592 67.4287L74.7664 67.4599L74.7118 67.5474L74.7105 67.55L74.6864 67.5903L74.6857 67.5909L74.6773 67.6058L74.6766 67.6071L74.6727 67.6162L74.5927 67.6954L74.5004 67.7758L74.4971 67.7784L74.2324 67.9659L74.1719 68.0094L74.0763 68.0561L73.8786 68.1521L73.8175 68.1742L73.6366 68.239L73.6243 68.2429L73.4617 68.3013L73.4292 68.313L72.9719 68.4771L72.5901 68.6141L72.5596 68.6763L72.5843 68.7198L73.0597 68.5453L73.2236 68.5005L73.2685 68.4882L73.4643 68.435L73.5092 68.4226L73.6783 68.3766L73.7875 68.3708L73.8136 68.3688L73.9508 68.361L73.9911 68.3584L74.0353 68.4408H74.0347L74.0412 68.4519L74.0139 68.5174H74.0145L73.9846 68.5894L73.837 68.786L73.7693 68.8755L73.7407 68.9138L73.3719 69.3439L73.1092 69.5061L73.0532 69.5749L73.1033 69.6184L73.3218 69.4808L73.6288 69.2875L73.941 68.9008L74.155 68.7393L74.1557 68.7386L74.4483 68.5167L74.6662 68.3519L74.9537 68.2209L75.195 68.2157L75.2288 68.2144L75.3414 68.2274L75.4044 68.1651L75.4539 68.2144L75.5729 68.2832L75.7153 68.2968H75.7173L75.7732 68.302L75.9228 68.2773L75.9768 68.3149L75.9859 68.3208L76.0171 68.3312L76.0665 68.348L76.0796 68.3519L76.1576 68.3662L76.1869 68.3714L76.2545 68.3831L76.3891 68.3649L76.3917 68.3643L76.4178 68.3941L76.4353 68.4149L76.4451 68.4214H76.4457L76.5361 68.4856H76.5355L76.5524 68.4966L76.5589 68.5018L76.5856 68.5206L76.5953 68.5252L76.5966 68.5258C76.6233 68.5388 76.6922 68.568 76.7586 68.5965L76.7924 68.6108L76.8074 68.6173L76.8399 68.6309H76.8405L76.9049 68.6575L76.9908 68.7094L76.9986 68.7133L76.9999 68.7204L77.0174 68.8074L77.0981 68.9099L77.1202 68.9384L77.3609 69.244L77.4246 69.3563L77.4291 69.3627L77.5176 69.5185L77.5742 69.5042L77.5924 69.4996L77.6009 69.5146L77.636 69.5762L77.6737 69.643L77.6861 69.6761L77.7036 69.7235L77.7095 69.7397L77.7361 69.8111L77.8116 69.8305L77.9657 69.9324L77.9989 69.9551L78.1238 70.1861L78.1888 70.2256L78.1973 70.2315H78.1986L78.2298 70.2516L78.4073 70.3612L78.4171 70.3671L78.4236 70.371L78.4366 70.3787L78.5147 70.4456L78.6864 70.5916L78.743 70.5474Z" fill="#584332"/>
<path fill-rule="evenodd" clip-rule="evenodd" d="M212.146 131.5H208.688L210.071 92.1782H210.763L212.146 131.5Z" fill="#FFFFFE"/>
<path fill-rule="evenodd" clip-rule="evenodd" d="M211.311 91.8563C212.781 93.4848 220.349 96.2921 220.349 96.2921L220.506 95.9891L220.667 95.679C220.667 95.679 213.61 91.0499 211.813 90.8877L211.311 91.8563Z" fill="#FFFFFE"/>
<path fill-rule="evenodd" clip-rule="evenodd" d="M210.971 89.6562C211.743 87.6041 210.754 79.6104 210.754 79.6104L210.412 79.611L210.063 79.6116C210.063 79.6116 209.194 87.9921 209.877 89.6581L210.971 89.6562Z" fill="#FFFFFE"/>
<path fill-rule="evenodd" clip-rule="evenodd" d="M209.49 91.8563C208.019 93.4848 200.45 96.2921 200.45 96.2921L200.293 95.9891L200.133 95.679C200.133 95.679 207.19 91.0499 208.987 90.8877L209.49 91.8563Z" fill="#FFFFFE"/>
<path fill-rule="evenodd" clip-rule="evenodd" d="M208.687 91.9462L208.501 91.5381L210.355 90.6973L210.541 91.1054L208.687 91.9462Z" fill="#FFFFFE"/>
<path fill-rule="evenodd" clip-rule="evenodd" d="M211.787 91.7494L210.326 91.0772L210.515 90.6704L211.975 91.3426L211.787 91.7494Z" fill="#FFFFFE"/>
<path fill-rule="evenodd" clip-rule="evenodd" d="M210.195 90.7607H210.644V89.0239H210.195V90.7607Z" fill="#FFFFFE"/>
<path fill-rule="evenodd" clip-rule="evenodd" d="M210.195 92.4983H210.644V91.1533H210.195V92.4983Z" fill="#FFFFFE"/>
<path fill-rule="evenodd" clip-rule="evenodd" d="M211.117 90.911C211.117 91.2919 210.807 91.6007 210.425 91.6007C210.043 91.6007 209.733 91.2919 209.733 90.911C209.733 90.5295 210.043 90.2207 210.425 90.2207C210.807 90.2207 211.117 90.5295 211.117 90.911Z" fill="#6FAA8B"/>
<path fill-rule="evenodd" clip-rule="evenodd" d="M86.648 116.913H84.2383L85.2022 89.5068H85.6841L86.648 116.913Z" fill="#FFFFFE"/>
<path fill-rule="evenodd" clip-rule="evenodd" d="M86.0654 89.2833C87.0905 90.418 92.3652 92.3741 92.3652 92.3741L92.5864 91.9472C92.5864 91.9472 87.668 88.7208 86.4153 88.6079L86.0654 89.2833Z" fill="#FFFFFE"/>
<path fill-rule="evenodd" clip-rule="evenodd" d="M85.8286 87.7493C86.3665 86.3194 85.6777 80.7476 85.6777 80.7476L85.439 80.7482H85.1958C85.1958 80.7482 84.5903 86.5892 85.0664 87.7506L85.8286 87.7493Z" fill="#FFFFFE"/>
<path fill-rule="evenodd" clip-rule="evenodd" d="M84.7954 89.2833C83.7703 90.418 78.4955 92.3741 78.4955 92.3741L78.2744 91.9472C78.2744 91.9472 83.1928 88.7208 84.4454 88.6079L84.7954 89.2833Z" fill="#FFFFFE"/>
<path fill-rule="evenodd" clip-rule="evenodd" d="M84.2375 89.3453L84.1074 89.0605L85.3998 88.4746L85.5292 88.7594L84.2375 89.3453Z" fill="#FFFFFE"/>
<path fill-rule="evenodd" clip-rule="evenodd" d="M86.3978 89.208L85.3799 88.7396L85.5113 88.4561L86.5291 88.9245L86.3978 89.208Z" fill="#FFFFFE"/>
<path fill-rule="evenodd" clip-rule="evenodd" d="M85.2891 88.5192H85.6026V87.3086H85.2891V88.5192Z" fill="#FFFFFE"/>
<path fill-rule="evenodd" clip-rule="evenodd" d="M85.2891 89.7298H85.6026V88.793H85.2891V89.7298Z" fill="#FFFFFE"/>
<path fill-rule="evenodd" clip-rule="evenodd" d="M85.9307 88.6233C85.9307 88.8893 85.7148 89.1047 85.4487 89.1047C85.1827 89.1047 84.9668 88.8893 84.9668 88.6233C84.9668 88.358 85.1827 88.1426 85.4487 88.1426C85.7148 88.1426 85.9307 88.358 85.9307 88.6233Z" fill="#6FAA8B"/>
<defs>
<linearGradient id="paint0_linear_11_2560" x1="134.317" y1="0" x2="134.317" y2="227.452" gradientUnits="userSpaceOnUse">
<stop stop-color="#237393" stop-opacity="0.74"/>
<stop offset="1" stop-color="#32505C" stop-opacity="0"/>
</linearGradient>
<linearGradient id="paint1_linear_11_2560" x1="134" y1="-7.55234e-08" x2="134.317" y2="118.478" gradientUnits="userSpaceOnUse">
<stop stop-color="white"/>
<stop offset="1" stop-color="white" stop-opacity="0"/>
</linearGradient>
</defs>
</svg>
