<svg width="48" height="49" viewBox="0 0 48 49" fill="none" xmlns="http://www.w3.org/2000/svg">
<path d="M47.5 24.377C47.5 37.5712 36.9714 48.2539 24 48.2539C11.0286 48.2539 0.5 37.5712 0.5 24.377C0.5 11.1827 11.0286 0.5 24 0.5C36.9714 0.5 47.5 11.1827 47.5 24.377Z" stroke="#499D2F"/>
<ellipse opacity="0.24" cx="24" cy="24.377" rx="20" ry="20.3141" fill="#499D2F"/>
<path d="M29 20.3141C20 22.3455 17.9 28.6125 15.82 33.8637L17.71 34.534L18.66 32.1979C19.14 32.3706 19.64 32.5026 20 32.5026C31 32.5026 34 15.2356 34 15.2356C33 17.267 26 17.5209 21 18.5366C16 19.5523 14 23.8691 14 25.9005C14 27.9319 15.75 29.7094 15.75 29.7094C19 20.3141 29 20.3141 29 20.3141Z" fill="#499D2F"/>
</svg>
