<svg width="48" height="49" viewBox="0 0 48 49" fill="none" xmlns="http://www.w3.org/2000/svg">
<path d="M47.5 24.5078C47.5 37.7021 36.9714 48.3848 24 48.3848C11.0286 48.3848 0.5 37.7021 0.5 24.5078C0.5 11.3136 11.0286 0.630859 24 0.630859C36.9714 0.630859 47.5 11.3136 47.5 24.5078Z" stroke="#C8CCD8"/>
<ellipse cx="24" cy="24.5079" rx="20" ry="20.3141" fill="#F1F2F9"/>
<path d="M29 20.445C20 22.4764 17.9 28.7433 15.82 33.9945L17.71 34.6649L18.66 32.3288C19.14 32.5014 19.64 32.6335 20 32.6335C31 32.6335 34 15.3665 34 15.3665C33 17.3979 26 17.6518 21 18.6675C16 19.6832 14 24 14 26.0314C14 28.0628 15.75 29.8403 15.75 29.8403C19 20.445 29 20.445 29 20.445Z" fill="#C8CCD8"/>
</svg>