<svg width="50" height="50" viewBox="0 0 50 50" fill="none" xmlns="http://www.w3.org/2000/svg">
<circle cx="25" cy="25" r="24.5" stroke="#499D2F"/>
<ellipse opacity="0.24" cx="25.0001" cy="25.0003" rx="20.8333" ry="20.8333" fill="#499D2F"/>
<path d="M23.9583 23.6992C23.9583 23.1239 24.4246 22.6576 24.9999 22.6576C25.5752 22.6576 26.0416 23.1239 26.0416 23.6992C26.0416 24.2745 25.5752 24.7409 24.9999 24.7409C24.4246 24.7409 23.9583 24.2745 23.9583 23.6992Z" fill="#499D2F"/>
<path d="M20.8333 25.7826C20.258 25.7826 19.7916 26.2489 19.7916 26.8242C19.7916 27.3995 20.258 27.8659 20.8333 27.8659C21.4085 27.8659 21.8749 27.3995 21.8749 26.8242C21.8749 26.2489 21.4085 25.7826 20.8333 25.7826Z" fill="#499D2F"/>
<path d="M20.8333 28.9076C20.258 28.9076 19.7916 29.3739 19.7916 29.9492C19.7916 30.5245 20.258 30.9909 20.8333 30.9909C21.4085 30.9909 21.8749 30.5245 21.8749 29.9492C21.8749 29.3739 21.4085 28.9076 20.8333 28.9076Z" fill="#499D2F"/>
<path d="M24.9999 25.7826C24.4246 25.7826 23.9583 26.2489 23.9583 26.8242C23.9583 27.3995 24.4246 27.8659 24.9999 27.8659C25.5752 27.8659 26.0416 27.3995 26.0416 26.8242C26.0416 26.2489 25.5752 25.7826 24.9999 25.7826Z" fill="#499D2F"/>
<path d="M23.9583 29.9492C23.9583 29.3739 24.4246 28.9076 24.9999 28.9076C25.5752 28.9076 26.0416 29.3739 26.0416 29.9492C26.0416 30.5245 25.5752 30.9909 24.9999 30.9909C24.4246 30.9909 23.9583 30.5245 23.9583 29.9492Z" fill="#499D2F"/>
<path d="M29.1666 22.6576C28.5913 22.6576 28.1249 23.1239 28.1249 23.6992C28.1249 24.2745 28.5913 24.7409 29.1666 24.7409C29.7419 24.7409 30.2083 24.2745 30.2083 23.6992C30.2083 23.1239 29.7419 22.6576 29.1666 22.6576Z" fill="#499D2F"/>
<path d="M28.1249 26.8242C28.1249 26.2489 28.5913 25.7826 29.1666 25.7826C29.7419 25.7826 30.2083 26.2489 30.2083 26.8242C30.2083 27.3995 29.7419 27.8659 29.1666 27.8659C28.5913 27.8659 28.1249 27.3995 28.1249 26.8242Z" fill="#499D2F"/>
<path fill-rule="evenodd" clip-rule="evenodd" d="M17.7083 15.3659V16.4076H16.6666C15.516 16.4076 14.5833 17.3403 14.5833 18.4909V33.0742C14.5833 34.2248 15.516 35.1576 16.6666 35.1576H33.3333C34.4838 35.1576 35.4166 34.2248 35.4166 33.0742V18.4909C35.4166 17.3403 34.4838 16.4076 33.3333 16.4076H32.2916V15.3659C32.2916 14.7906 31.8252 14.3242 31.2499 14.3242C30.6746 14.3242 30.2083 14.7906 30.2083 15.3659V16.4076H19.7916V15.3659C19.7916 14.7906 19.3252 14.3242 18.7499 14.3242C18.1746 14.3242 17.7083 14.7906 17.7083 15.3659ZM16.6666 20.5742V33.0742H33.3333V20.5742H16.6666Z" fill="#499D2F"/>
</svg>
