<svg width="48" height="48" viewBox="0 0 48 48" fill="none" xmlns="http://www.w3.org/2000/svg">
<path fill-rule="evenodd" clip-rule="evenodd" d="M24.6765 22.6362C24.6765 22.6362 29.9676 23.1095 31.9981 16.8616C34.0293 10.6136 35.374 9.16979 35.374 9.16979C35.374 9.16979 35.2707 8.70413 34.0159 9.31514C32.7603 9.92684 24.6178 11.9466 23.8206 15.7787C23.0227 19.6108 23.9254 21.8048 24.6765 22.6362Z" fill="#89C280"/>
<path fill-rule="evenodd" clip-rule="evenodd" d="M23.7887 24.1026C23.6899 24.1363 23.5985 24.0447 23.5257 23.9744C23.4514 23.9049 23.3066 23.8566 23.2568 23.9434L23.2427 24.0289C23.2568 24.8465 23.2717 25.6642 23.285 26.4819C23.2999 27.2906 23.314 28.1021 23.4462 28.9011C23.4618 28.9941 23.4856 29.0975 23.5703 29.1491C23.6461 29.1966 23.7464 29.1863 23.8355 29.1691C24.0287 29.134 24.2182 29.0775 24.3979 29.0003C24.4945 28.9597 24.5941 28.908 24.6453 28.8212C24.6944 28.7372 24.6899 28.6366 24.684 28.5415C24.6141 27.3726 24.6067 26.2008 24.6594 25.0311C24.7523 23.0059 25.5205 21.0923 26.3422 19.2206C27.2255 17.2071 28.2983 15.1447 29.8994 13.5293C30.1185 13.3068 30.6861 12.8997 30.4476 12.6965C30.2084 12.4933 29.5398 13.0003 29.3206 13.2221C25.6706 16.9068 23.6951 24.0295 23.6008 24.3512C23.5807 24.4208 23.5755 24.4911 23.5844 24.5572C23.6112 24.7721 23.7754 24.9602 24.0131 25.0208C24.3259 25.1 24.649 24.9285 24.7352 24.6378C24.7397 24.6206 24.6052 24.2052 24.788 23.537L24.7961 23.5088L23.7887 24.1026Z" fill="#3F633B"/>
<path fill-rule="evenodd" clip-rule="evenodd" d="M22.9402 23.4455C22.9402 23.4455 19.6668 24.6648 17.1119 21.0414C14.5569 17.4167 13.409 16.7313 13.409 16.7313C13.409 16.7313 13.3809 16.4172 14.3036 16.588C15.2263 16.7595 20.8169 16.63 22.0992 18.9315C23.3807 21.2322 23.25 22.7856 22.9402 23.4455Z" fill="#89C280"/>
<path fill-rule="evenodd" clip-rule="evenodd" d="M24.0237 24.4781C24.0497 24.6193 23.9836 24.7681 23.8432 24.8473C23.6604 24.952 23.4197 24.899 23.3076 24.7296C23.3001 24.7192 23.3023 24.432 23.0505 24.0373C22.2095 22.7208 20.0112 19.8029 17.7749 18.5546C17.5907 18.4513 17.1472 18.2908 17.2579 18.12C17.3693 17.9491 17.8975 18.1558 18.0818 18.2591C21.1486 19.9702 23.8454 24.1612 23.9702 24.35L24.0237 24.4781Z" fill="#3F633B"/>
<path fill-rule="evenodd" clip-rule="evenodd" d="M19.1585 28.5373C22.0857 27.978 25.1325 28.2439 28.1205 28.5111C30.0128 28.6813 31.9503 28.8618 33.6665 29.5988C35.3827 30.3359 36.8596 31.755 36.9911 33.4344C37.0342 33.9882 36.9235 34.5634 36.5818 35.0243C36.1531 35.6029 35.4228 35.9398 34.7252 36.2511C33.0098 37.0164 31.2951 37.7818 29.5796 38.5471C28.8129 38.8894 28.0373 39.2346 27.2 39.4088C25.9207 39.6747 24.5797 39.528 23.2751 39.3579C21.1392 39.0802 19.0114 38.7468 16.8963 38.3583C15.62 38.1241 14.2819 37.8396 13.3273 37.0502C9.17577 33.6176 15.7864 29.1828 19.1585 28.5373Z" fill="#998675"/>
<circle cx="24" cy="24" r="23.5" stroke="#499D2F"/>
<ellipse opacity="0.24" cx="24" cy="24" rx="20" ry="20" fill="#499D2F"/>
</svg>
