<svg width="50" height="50" viewBox="0 0 50 50" fill="none" xmlns="http://www.w3.org/2000/svg">
<circle cx="25" cy="25" r="24.5" stroke="#499D2F"/>
<ellipse opacity="0.24" cx="25.0001" cy="24.9993" rx="20.8333" ry="20.8333" fill="#499D2F"/>
<path d="M24.847 33.3716C21.8525 33.3665 19.4276 31.0845 19.4221 28.2664C19.4221 27.9856 19.178 27.7559 18.8797 27.7559C18.5813 27.7559 18.3372 27.9856 18.3372 28.2664C18.3426 31.646 21.2557 34.3875 24.8469 34.3927C25.1453 34.3927 25.3894 34.1629 25.3894 33.8821C25.3895 33.6014 25.1453 33.3716 24.847 33.3716Z" fill="#499D2F"/>
<path d="M24.9502 12.583C24.7386 12.389 24.4023 12.389 24.1961 12.583C23.8489 12.9046 15.625 20.542 15.625 28.3377C15.625 33.0855 19.6393 36.945 24.5759 36.945C29.5125 36.945 33.5268 33.0855 33.5268 28.3377C33.5268 20.4961 25.3028 12.9046 24.9502 12.583ZM24.5759 35.924C20.2361 35.924 16.7099 32.5188 16.7099 28.3377C16.7099 21.8949 22.9593 15.2836 24.5759 13.6806C26.1925 15.2785 32.4419 21.8591 32.4419 28.3377C32.4418 32.5188 28.9103 35.924 24.5759 35.924Z" fill="#499D2F"/>
</svg>
